<svg width="100%" height="50" viewBox="0 0 360 117" fill="none" xmlns="http://www.w3.org/2000/svg"><g clip-path="url(#clip0_1767_326)"><path d="M100.185 20.8275L91.8733 19.3634C88.6146 18.7495 86.6783 17.8049 86.6783 15.3018C86.6783 12.2792 89.2286 10.4846 93.7152 10.4846C98.8631 10.4846 102.452 12.9877 102.736 18.1827L112.559 17.8994C112.37 8.07596 105.806 2.12524 93.7624 2.12524C82.9945 2.12524 76.1937 7.50923 76.1937 16.1992C76.1937 23.7084 81.1998 27.6283 88.2368 28.9507L96.5489 30.4148C100.422 31.1704 103.019 31.8788 103.019 34.807C103.019 37.7351 100.044 39.577 95.3682 39.577C89.8898 39.577 85.3087 37.1211 84.8836 31.0287L75.1074 31.3593C75.1074 42.0801 83.5612 47.8891 95.3682 47.8891C105.475 47.8891 113.456 43.2135 113.456 34.0985C113.409 26.9199 109.253 22.4332 100.185 20.8275ZM116.479 12.232H126.822V2.97535H116.479V12.232ZM116.574 47.0862H126.68V16.0103H116.574V47.0862ZM171.925 15.1602C166.777 15.1602 162.999 17.8994 161.393 21.3942C160.07 17.6632 157.048 15.1602 151.569 15.1602C146.847 15.1602 143.399 17.3799 141.746 20.8275V16.0103H131.639V47.1335H141.746V31.2649C141.746 26.3532 143.588 23.1417 147.461 23.1417C151.192 23.1417 152.325 25.5975 152.325 30.0842V47.0862H162.526V31.2649C162.526 26.3532 164.274 23.1417 168.241 23.1417C171.877 23.1417 173.011 25.5975 173.011 30.0842V47.0862H183.118V27.6283C183.023 21.0636 180.426 15.1602 171.925 15.1602ZM208.196 15.1602C202.765 15.1602 199.175 17.8994 197.664 21.5831V16.0103H187.557V58.4682H197.664V41.5606C199.222 45.1971 202.812 47.9363 208.196 47.9363C217.358 47.9363 222.128 40.7105 222.128 31.5482C222.128 22.4333 217.358 15.1602 208.196 15.1602ZM204.748 40.0965C200.545 40.0965 197.664 36.9322 197.664 31.8788V31.2176C197.664 26.2587 200.545 23.0944 204.748 23.0944C209.518 23.0944 211.832 26.5421 211.832 31.5482C211.832 36.6489 209.518 40.0965 204.748 40.0965ZM225.198 47.0862H235.305V2.97535H225.198V47.0862ZM240.122 12.232H250.465V2.97535H240.122V12.232ZM240.216 47.0862H250.323V16.0103H240.216V47.0862ZM270.348 22.8583C274.126 22.8583 276.393 25.078 277.101 29.2813L285.555 28.6673C284.799 21.2526 279.557 15.1602 270.3 15.1602C260.524 15.1602 253.44 21.7248 253.44 31.5482C253.44 41.4189 260.524 47.9363 270.3 47.9363C279.604 47.9363 284.799 41.8912 285.555 34.4291L277.101 33.7207C276.393 37.924 274.126 40.2382 270.348 40.2382C266.428 40.2382 263.689 37.499 263.689 31.5482C263.689 25.5975 266.428 22.8583 270.348 22.8583ZM288.436 12.232H298.779V2.97535H288.436V12.232ZM288.483 47.0862H298.59V16.0103H288.483V47.0862ZM348.982 16.0103L341.331 35.4209H341.048L333.539 16.0103H314.647V7.36754H308.366L307.327 11.5236C306.571 14.4045 305.627 16.0103 302.557 16.577L300.29 16.9076V23.0944H304.635V38.7741C304.635 45.7638 309.216 47.9363 314.27 47.9363C318.331 47.9363 321.023 46.9445 323.337 45.1971V38.5852C321.448 39.4353 319.843 39.8604 318.284 39.8604C315.875 39.8604 314.647 38.7269 314.647 36.0821V23.0944H322.96V16.1992L335.664 47.4168L331.083 58.4682H341.048L358.994 16.0103H348.982Z" fill="#FF5900"></path><path d="M53.0989 53.2731L52.0126 53.9815C45.259 58.6098 37.3248 61.0657 29.1071 61.0657C20.8894 61.0657 12.9551 58.6098 6.15433 53.9342L5.06808 53.2258L1.05371 60.1211L1.99827 60.7351C10.027 66.1663 19.4254 69 29.1543 69C38.8361 69 48.1872 66.1663 56.2159 60.7351L57.1605 60.1211L53.0989 53.2731Z" fill="#FF5900"></path><path d="M11.7744 46.5667L39.1666 0H49.4151L22.0701 46.5667H11.7744Z" fill="#FF5900"></path><path d="M22.9205 4.01429C20.6063 1.74735 17.8199 0.56665 14.6084 0.56665C11.3497 0.56665 8.51598 1.70012 6.24904 3.96706C3.9821 6.234 2.84863 9.02045 2.84863 12.3264C2.84863 15.6324 3.9821 18.4188 6.24904 20.6857C8.51598 22.9527 11.3024 24.0862 14.6084 24.0862C17.8199 24.0862 20.6063 22.9055 22.9205 20.6385C25.1874 18.3244 26.3681 15.5379 26.3681 12.3264C26.3681 9.06768 25.1874 6.28123 22.9205 4.01429ZM17.9143 15.6324C17.017 16.5769 15.9308 17.002 14.6556 17.002C13.3332 17.002 12.1998 16.5297 11.3024 15.6324C10.3579 14.735 9.93282 13.6488 9.93282 12.3264C9.93282 11.004 10.4051 9.91778 11.3024 9.02045C12.1998 8.12312 13.3332 7.65084 14.6556 7.65084C15.9308 7.65084 17.0642 8.12312 17.9616 9.02045C18.8589 9.91778 19.3312 11.0513 19.3312 12.3264C19.284 13.6016 18.8589 14.735 17.9143 15.6324Z" fill="#FF5900"></path><path d="M54.8932 27.2977C52.6262 25.0308 49.7925 23.8501 46.581 23.8501C43.3223 23.8501 40.4886 24.9836 38.2217 27.2505C35.9548 29.5174 34.8213 32.3039 34.8213 35.5626C34.8213 38.8686 35.9548 41.655 38.2217 43.922C40.4886 46.1889 43.2751 47.3224 46.581 47.3224C49.7925 47.3224 52.579 46.1417 54.8932 43.8747C57.1601 41.5606 58.3408 38.7741 58.3408 35.5626C58.3408 32.3511 57.1601 29.5647 54.8932 27.2977ZM49.887 38.9158C48.9897 39.8131 47.8562 40.2854 46.581 40.2854C45.2587 40.2854 44.1252 39.8131 43.2279 38.9158C42.3305 38.0185 41.9055 36.885 41.9055 35.5626C41.9055 34.2402 42.3778 33.154 43.2751 32.2567C44.1724 31.3593 45.3059 30.8871 46.6283 30.8871C47.9034 30.8871 49.0369 31.3593 49.9342 32.2567C50.8316 33.154 51.3038 34.2875 51.3038 35.5626C51.2566 36.885 50.8316 38.0185 49.887 38.9158Z" fill="#FF5900"></path></g><path d="M250.194 68.76V99H271.218V95.544H254.37V68.76H250.194ZM275.174 78.024V99H279.158V78.024H275.174ZM275.078 73.272H279.206V68.76H275.078V73.272ZM294.723 99L303.363 78.024H299.475L293.091 94.152H292.899L286.371 78.024H282.195L290.835 99H294.723ZM306.439 78.024V99H310.423V78.024H306.439ZM306.343 73.272H310.471V68.76H306.343V73.272ZM319.845 86.952C319.845 83.112 322.341 80.616 325.509 80.616C328.821 80.616 330.501 82.824 330.501 86.328V99H334.485V85.992C334.485 81.096 332.277 77.448 326.805 77.448C323.685 77.448 320.853 79.224 319.845 81.768V78.024H315.861V99H319.845V86.952ZM356.954 84.6C356.954 83.256 356.57 82.056 355.946 81.048C357.002 80.52 358.586 80.184 359.978 80.184V76.728C357.722 76.728 355.754 77.928 354.65 79.608C353.066 78.264 350.714 77.448 348.074 77.448C342.938 77.448 339.29 80.184 339.29 84.6C339.29 86.904 340.298 88.776 342.026 90.024C340.154 90.84 338.858 92.136 338.858 93.96C338.858 95.544 339.722 96.936 341.642 97.56C339.05 98.04 337.322 99.576 337.322 101.976C337.322 105.864 342.026 107.64 347.69 107.64C353.93 107.64 359.786 105.624 359.786 100.392C359.786 97.128 357.386 94.728 352.826 94.728H344.618C342.794 94.728 342.074 94.056 342.074 92.904C342.074 91.944 342.746 91.272 343.466 90.84C344.762 91.416 346.346 91.704 348.074 91.704C353.258 91.704 356.954 88.968 356.954 84.6ZM341.114 101.208C341.114 98.952 342.986 98.232 345.146 98.232H351.914C354.362 98.232 355.946 98.904 355.946 100.824C355.946 103.848 352.49 105 347.69 105C343.802 105 341.114 103.848 341.114 101.208ZM352.922 84.648C352.922 87.528 351.098 89.16 348.122 89.16C345.194 89.16 343.37 87.528 343.37 84.648C343.37 81.672 345.194 80.04 348.122 80.04C351.098 80.04 352.922 81.672 352.922 84.648Z" fill="#FF5900"></path><defs><clipPath id="clip0_1767_326"><rect width="360" height="69" fill="white"></rect></clipPath></defs></svg>
